<svg width="78" height="25" viewBox="0 0 78 25" xmlns="http://www.w3.org/2000/svg">
    <defs>
        <clipPath id="a">
            <path d="M1920 0v1080H0V0h1920Z"/>
        </clipPath>
        <clipPath id="b">
            <path d="M46.78 0c.668 0 1.224.201 1.67.604.444.402.639.88.583 1.434V6.99h6.445c.759 0 1.351.381 1.778 1.144.095.327.142.654.142.98 0 .654-.19 1.2-.569 1.635-.379.436-.83.627-1.35.572H49.03l-.069 3.74.005.21c.084 2.488 1.434 4.724 3.934 5.12 2.45.388 4.753-1.158 5.324-3.498a6.044 6.044 0 0 1-.033-.33c-.017-.22 0-.508 0-.733 0-3.647 2.234-6.78 5.427-8.142l-.04-.07.017.011c.024.008.073.01.144.008a9.176 9.176 0 0 1 5.145-.518c.153.002.277.011.363.03 1.402.315 3.687.064 4.815-.954l.055-.051c.838-.781 2.163-.722 2.96.133.796.854.763 2.18-.075 2.96a8.542 8.542 0 0 1-2.392 1.578 8.722 8.722 0 0 1 1.578 5.015c0 4.897-4.028 8.868-8.998 8.868a9.113 9.113 0 0 1-6.793-2.995 9.04 9.04 0 0 1-8.161 2.883 9.059 9.059 0 0 1-4.64-2.198v.096a2.11 2.11 0 1 1-4.218 0v-7.228c-.005-2.532-2.083-4.585-4.646-4.585-2.505 0-4.546 1.96-4.638 4.414l.002 6.898a2.11 2.11 0 1 1-4.22 0v-.663a9.093 9.093 0 0 1-7.076 3.352c-2.74 0-5.205-1.177-6.873-3.052a9.078 9.078 0 0 1-8.265 2.966C3.232 23.884.056 20.128.003 15.85l-.002-.084.046-4.67V7.148L0 2.011C0 1.216.429.596 1.192.149c.327-.1.654-.149.98-.149.655 0 1.2.199 1.636.596.435.397.575.869.52 1.415v4.852h4.24c.286-.014.576-.014.868 0h1.098c.761 0 1.356.395 1.784 1.183.095.338.143.676.143 1.014 0 .676-.19 1.239-.571 1.69-.38.45-.833.647-1.356.59H4.328l.003 4.253c.002.02.002.041.002.061-.063 2.31 1.613 4.36 3.995 4.737 2.562.405 4.964-1.29 5.404-3.796l.012-.077v-.027c-.017-.223 0-.512 0-.738 0-4.926 4.055-8.92 9.057-8.92a9.077 9.077 0 0 1 7.944 4.633 8.867 8.867 0 0 1 7.988-4.963 8.89 8.89 0 0 1 5.879 2.204V2.038c0-.805.389-1.434 1.167-1.887A3.48 3.48 0 0 1 46.781 0Zm20.41 11.185c-2.603 0-4.713 2.08-4.713 4.645 0 .176.01.35.03.52.033.125.053.254.061.386.427 2.132 2.334 3.739 4.623 3.739 2.603 0 4.713-2.08 4.713-4.645 0-2.566-2.11-4.645-4.713-4.645ZM22.8 11.08c-2.62 0-4.744 2.091-4.744 4.672 0 2.58 2.125 4.671 4.745 4.671s4.744-2.091 4.744-4.671-2.124-4.672-4.744-4.672Z"/>
        </clipPath>
    </defs>
    <g clip-path="url(#a)" transform="translate(-70 -283)">
        <g clip-path="url(#b)" transform="translate(70.152 283.25)">
            <path fill="#009E90" d="M0 0h77.654v24.7H0V0z"/>
        </g>
    </g>
</svg>
