<?xml version="1.0" encoding="UTF-8"?><svg version="1.1" width="23px" height="5px" viewBox="0 0 23.0 5.0" xmlns="http://www.w3.org/2000/svg" xmlns:xlink="http://www.w3.org/1999/xlink"><defs><clipPath id="i0"><path d="M1920,0 L1920,1080 L0,1080 L0,0 L1920,0 Z"></path></clipPath><clipPath id="i1"><path d="M2.16666667,0 C3.36425808,0 4.33333333,0.96907525 4.33333333,2.16666667 C4.33333333,3.36425808 3.36425808,4.33333333 2.16666667,4.33333333 C0.96907525,4.33333333 0,3.36425808 0,2.16666667 C0,0.96907525 0.96907525,0 2.16666667,0 Z M10.8333333,0 C12.0309248,0 13,0.96907525 13,2.16666667 C13,3.36425808 12.0309248,4.33333333 10.8333333,4.33333333 C9.63574192,4.33333333 8.66666667,3.36425808 8.66666667,2.16666667 C8.66666667,0.96907525 9.63574192,0 10.8333333,0 Z M19.5,0 C20.6975914,0 21.6666667,0.96907525 21.6666667,2.16666667 C21.6666667,3.36425808 20.6975914,4.33333333 19.5,4.33333333 C18.3024086,4.33333333 17.3333333,3.36425808 17.3333333,2.16666667 C17.3333333,0.96907525 18.3024086,0 19.5,0 Z"></path></clipPath></defs><g transform="translate(-341.0 -413.0)"><g clip-path="url(#i0)"><g transform="translate(339.0 403.0)"><g transform="translate(2.5999999999999996 10.399999999999999)"><g clip-path="url(#i1)"><polygon points="0,0 21.6666667,0 21.6666667,4.33333333 0,4.33333333 0,0" stroke="none" fill="#00F2DC"></polygon></g></g></g></g></g></svg>