<?xml version="1.0" encoding="UTF-8"?>
<svg width="50px" height="50px" viewBox="0 0 50 50" version="1.1" xmlns="http://www.w3.org/2000/svg" xmlns:xlink="http://www.w3.org/1999/xlink">
    <title>player/pause</title>
    <defs>
        <path d="M11.2380952,2.66666667 C13.131643,2.66666667 14.6666667,4.45752767 14.6666667,6.66666667 L14.6666667,25.3333333 C14.6666667,27.5424723 13.131643,29.3333333 11.2380952,29.3333333 L10.0952381,29.3333333 C8.20169038,29.3333333 6.66666667,27.5424723 6.66666667,25.3333333 L6.66666667,6.66666667 C6.66666667,4.45752767 8.20169038,2.66666667 10.0952381,2.66666667 L11.2380952,2.66666667 Z M21.9047619,2.66666667 C23.7983096,2.66666667 25.3333333,4.45752767 25.3333333,6.66666667 L25.3333333,25.3333333 C25.3333333,27.5424723 23.7983096,29.3333333 21.9047619,29.3333333 L20.7619048,29.3333333 C18.868357,29.3333333 17.3333333,27.5424723 17.3333333,25.3333333 L17.3333333,6.66666667 C17.3333333,4.45752767 18.868357,2.66666667 20.7619048,2.66666667 L21.9047619,2.66666667 Z" id="path-1"></path>
        <filter x="-16.1%" y="-11.3%" width="132.1%" height="122.5%" filterUnits="objectBoundingBox" id="filter-2">
            <feOffset dx="0" dy="0" in="SourceAlpha" result="shadowOffsetOuter1"></feOffset>
            <feGaussianBlur stdDeviation="1" in="shadowOffsetOuter1" result="shadowBlurOuter1"></feGaussianBlur>
            <feColorMatrix values="0 0 0 0 0   0 0 0 0 0   0 0 0 0 0  0 0 0 0.2 0" type="matrix" in="shadowBlurOuter1"></feColorMatrix>
        </filter>
    </defs>
    <g id="Assets" stroke="none" stroke-width="1" fill="none" fill-rule="evenodd">
        <g transform="translate(-967.000000, -59.000000)" id="Group">
            <g transform="translate(964.000000, 54.000000)">
                <g id="Buttons/circle" transform="translate(3.000000, 5.000000)" fill="#4A4A4A">
                    <path d="M25,0 C38.8071187,0 50,11.1928813 50,25 C50,38.8071187 38.8071187,50 25,50 C11.1928813,50 0,38.8071187 0,25 C0,11.1928813 11.1928813,0 25,0 Z M25,2 C12.2974508,2 2,12.2974508 2,25 C2,37.7025492 12.2974508,48 25,48 C37.7025492,48 48,37.7025492 48,25 C48,12.2974508 37.7025492,2 25,2 Z" id="Oval"></path>
                </g>
                <g transform="translate(12.000000, 14.000000)" id="Combined-Shape">
                    <use fill="black" fill-opacity="1" filter="url(#filter-2)" xlink:href="#path-1"></use>
                    <use fill="#4A4A4A" fill-rule="evenodd" xlink:href="#path-1"></use>
                </g>
            </g>
        </g>
    </g>
</svg>