<?xml version="1.0" encoding="UTF-8"?><svg version="1.1" width="59px" height="59px" viewBox="0 0 59.0 59.0" xmlns="http://www.w3.org/2000/svg" xmlns:xlink="http://www.w3.org/1999/xlink"><defs><clipPath id="i0"><path d="M1920,0 L1920,1080 L0,1080 L0,0 L1920,0 Z"></path></clipPath><clipPath id="i1"><path d="M29.5,0 C45.7924001,0 59,13.2075999 59,29.5 C59,45.7924001 45.7924001,59 29.5,59 C13.2075999,59 0,45.7924001 0,29.5 C0,13.2075999 13.2075999,0 29.5,0 Z"></path></clipPath><clipPath id="i2"><path d="M0,0 L2.14375,1.4 L23.58125,15.18125 L2.14375,28.9625 L0,30.3625 L0,0 Z"></path></clipPath></defs><g transform="translate(-173.0 -464.0)"><g clip-path="url(#i0)"><g transform="translate(173.0 464.0)"><g clip-path="url(#i1)"><polygon points="0,0 59,0 59,59 0,59 0,0" stroke="none" fill="#FFFFFF"></polygon></g><g transform="translate(8.0 9.0)"><g transform="translate(9.799999999999997 5.818750000000001)"><g clip-path="url(#i2)"><polygon points="0,0 23.58125,0 23.58125,30.3625 0,30.3625 0,0" stroke="none" fill="#3C3C3C"></polygon></g></g></g></g></g></g></svg>