<svg width="24" height="24" viewBox="0 0 24 24" xmlns="http://www.w3.org/2000/svg">
    <defs>
        <clipPath id="a">
            <path d="M1920 0v1080H0V0h1920Z"/>
        </clipPath>
        <clipPath id="b">
            <path d="M11.267 0c3.483 0 6.601 1.598 8.666 4.09V.867h1.734V7.8h-6.934V6.067h4.523a9.489 9.489 0 0 0-7.99-4.334 9.521 9.521 0 0 0-9.533 9.534 9.521 9.521 0 0 0 9.534 9.533 9.521 9.521 0 0 0 9.533-9.533h1.733c0 6.212-5.054 11.266-11.266 11.266C5.054 22.533 0 17.48 0 11.267S5.054 0 11.267 0Z"/>
        </clipPath>
        <clipPath id="c">
            <path d="M6.974 0c1.793 0 2.874 1.452 2.874 3.798 0 2.347-1.071 3.824-2.874 3.824-1.808 0-2.884-1.467-2.884-3.818C4.09 1.463 5.176 0 6.974 0ZM12.9 1.98c1.036 0 1.838.508 2.006 1.128a.833.833 0 0 1 .025.188c0 .264-.167.452-.487.452a.567.567 0 0 1-.483-.234c-.248-.37-.558-.604-1.091-.604-.554 0-.935.269-.935.655 0 .315.234.528.792.655l.859.188c1.137.259 1.59.67 1.59 1.467 0 1.031-.925 1.707-2.296 1.707-1.138 0-1.935-.437-2.194-1.082a.68.68 0 0 1-.05-.249c0-.305.223-.497.527-.497.209 0 .386.096.549.31.284.41.61.593 1.214.593.589 0 .98-.248.98-.655 0-.325-.204-.502-.757-.63l-.873-.197c-1.052-.24-1.57-.757-1.57-1.54 0-1 .864-1.655 2.194-1.655ZM2.6.046c.462 0 .741.279.741.731v6.14c0 .396-.264.66-.645.66-.38 0-.644-.264-.644-.66v-5.5h-.026l-1.183.822a.577.577 0 0 1-.37.127C.197 2.366 0 2.168 0 1.88c0-.203.081-.356.3-.508L1.798.32c.325-.23.528-.274.802-.274ZM6.974 1.07c-.985 0-1.564 1.021-1.564 2.727 0 1.737.569 2.753 1.564 2.753.99 0 1.554-1.01 1.554-2.747 0-1.717-.574-2.733-1.554-2.733Z"/>
        </clipPath>
    </defs>
    <g clip-path="url(#a)" transform="translate(-79 -130)">
        <g clip-path="url(#b)" transform="matrix(-1 0 0 1 102.267 130.733)">
            <path fill="#009E90" d="M0 0h22.533v22.533H0V0z"/>
        </g>
        <g clip-path="url(#c)" transform="translate(83.2 139.4)">
            <path fill="#009E90" d="M0 0h15.175v7.622H0V0z"/>
        </g>
    </g>
</svg>
