<?xml version="1.0" encoding="UTF-8"?>
<svg width="28px" height="28px" viewBox="0 0 28 28" version="1.1" xmlns="http://www.w3.org/2000/svg" xmlns:xlink="http://www.w3.org/1999/xlink">
    <title>player/redo10</title>
    <g id="Assets" stroke="none" stroke-width="1" fill="none" fill-rule="evenodd">
        <g transform="translate(-978.000000, -207.000000)" id="player/redo10">
            <g transform="translate(978.000000, 207.000000)">
                <g id="24-/reload" fill="#4A4A4A" transform="translate(13.760000, 13.760000) scale(-1, 1) translate(-13.760000, -13.760000) ">
                    <g id="navigation_reload-copy" transform="translate(2.978476, 2.978503)">
                        <path d="M16.5910642,4.92459034 L14.9643056,5.7968507 C14.4954869,6.04822912 14.3192166,6.63206427 14.570595,7.10088302 C14.6504925,7.24989109 14.7682055,7.37524269 14.9119027,7.46433876 L20.3400545,10.8299355 C20.792164,11.1102552 21.3859153,10.9709922 21.666235,10.5188827 C21.7553311,10.3751854 21.8050322,10.2105672 21.8103431,10.0415737 L22.0109594,3.65785795 C22.0276687,3.12615978 21.6101877,2.68158774 21.0784895,2.66487842 C20.9094961,2.65956761 20.7420819,2.69883425 20.5930738,2.77873162 L19.1234804,3.56672072 C16.3827243,0.584417722 12.0930028,-0.766694531 7.93972347,0.439944657 C2.10156944,2.1360852 -1.25619587,8.24383767 0.439944658,14.0819916 C2.13608516,19.9201456 8.24383764,23.277911 14.0819917,21.5817704 C16.2666931,20.947056 18.1617616,19.6746676 19.563353,17.9426485 C20.0414013,17.3518995 19.9500393,16.485468 19.3592902,16.0074198 C18.7685412,15.5293715 17.9021097,15.6207335 17.4240615,16.2114825 C16.373089,17.5102236 14.9550261,18.4623405 13.3142081,18.9390422 C8.9355926,20.2111476 4.35477825,17.6928236 3.08267285,13.3142081 C1.81056746,8.93559264 4.32889149,4.35477828 8.70750698,3.08267289 C11.5782637,2.24864096 14.5359361,3.04393346 16.5910642,4.92459034 Z" id="Combined-Shape"></path>
                    </g>
                </g>
                <text id="10s" font-family="ArialMT, Arial" font-size="6.88" font-weight="normal" letter-spacing="0.167804873" fill="#979797">
                    <tspan x="8.20196457" y="16.4">10s</tspan>
                </text>
            </g>
        </g>
    </g>
</svg>