<?xml version="1.0" encoding="UTF-8"?><svg version="1.1" width="44px" height="44px" viewBox="0 0 44.0 44.0" xmlns="http://www.w3.org/2000/svg" xmlns:xlink="http://www.w3.org/1999/xlink"><defs><clipPath id="i0"><path d="M1920,0 L1920,1080 L0,1080 L0,0 L1920,0 Z"></path></clipPath><clipPath id="i1"><path d="M22,0 C34.1502645,0 44,9.8497355 44,22 C44,34.1502645 34.1502645,44 22,44 C9.8497355,44 0,34.1502645 0,22 C0,9.8497355 9.8497355,0 22,0 Z"></path></clipPath><clipPath id="i2"><path d="M23.8333333,0 L23.8333333,16.5 L10.4055994,16.5 L4.58333333,21.1549479 L4.58333333,16.5 L0,16.5 L0,0 L23.8333333,0 Z M22,1.83333333 L1.83333333,1.83333333 L1.83333333,14.6666667 L6.41666667,14.6666667 L6.41666667,17.3414716 L9.76106817,14.6666667 L22,14.6666667 L22,1.83333333 Z"></path></clipPath></defs><g transform="translate(-88.0 -19.0)"><g clip-path="url(#i0)"><g transform="translate(88.0 19.0)"><g clip-path="url(#i1)"><polygon points="0,0 44,0 44,44 0,44 0,0" stroke="none" fill="#009E90"></polygon></g><g transform="translate(8.25 8.25)"><g transform="translate(1.833333333333334 2.75)"><g clip-path="url(#i2)"><polygon points="0,0 23.8333333,0 23.8333333,21.1549479 0,21.1549479 0,0" stroke="none" fill="#F7F7F7"></polygon></g></g></g></g></g></g></svg>