<?xml version="1.0" encoding="UTF-8"?><svg version="1.1" width="44px" height="44px" viewBox="0 0 44.0 44.0" xmlns="http://www.w3.org/2000/svg" xmlns:xlink="http://www.w3.org/1999/xlink"><defs><clipPath id="i0"><path d="M1920,0 L1920,1080 L0,1080 L0,0 L1920,0 Z"></path></clipPath><clipPath id="i1"><path d="M22,0 C34.1502645,0 44,9.8497355 44,22 C44,34.1502645 34.1502645,44 22,44 C9.8497355,44 0,34.1502645 0,22 C0,9.8497355 9.8497355,0 22,0 Z"></path></clipPath><clipPath id="i2"><path d="M18.7916667,0 C22.5836591,0 25.6666667,3.11881533 25.6666667,6.875 C25.6666667,9.49251325 23.4036458,11.4869792 23.4036458,11.4869792 L13.4921875,21.4270833 L12.8333333,22.0859375 L12.1744792,21.4270833 L2.26302083,11.4869792 C2.26302083,11.4869792 2.25418092,11.4787547 2.23763404,11.4627603 L2.11497491,11.3398729 C1.91082275,11.1293258 1.52494335,10.7043659 1.14583333,10.140625 C0.5944015,9.32063825 0,8.18554733 0,6.875 C0,3.11881533 3.08300758,0 6.875,0 C9.80539488,0 11.764279,1.64194508 12.6534001,2.51284731 L12.8333333,2.69270833 C13.6175132,1.8942055 15.6442055,0 18.7916667,0 Z M18.7916667,1.83333333 C16.2184247,1.83333333 13.8284538,4.18426452 13.5482122,4.46922588 L13.5208333,4.49739583 L12.8333333,5.27083333 L12.1458333,4.49739583 C12.1458333,4.49739583 12.1365346,4.48761048 12.1184545,4.46922588 L12.0383873,4.38946042 C11.5290667,3.89070391 9.28222636,1.83333333 6.875,1.83333333 C4.08561175,1.83333333 1.83333333,4.1214195 1.83333333,6.875 C1.83333333,7.58398483 2.22005208,8.44694033 2.6640625,9.109375 C3.01292783,9.62985938 3.36179315,10.0044476 3.49528754,10.1410856 L3.54544907,10.1914638 L12.8333333,19.4791667 L22.1145833,10.1979167 C22.1145833,10.1979167 23.8333333,8.28938825 23.8333333,6.875 C23.8333333,4.1214195 21.5810549,1.83333333 18.7916667,1.83333333 Z"></path></clipPath></defs><g transform="translate(-23.0 -19.0)"><g clip-path="url(#i0)"><g transform="translate(23.0 19.0)"><g clip-path="url(#i1)"><polygon points="0,0 44,0 44,44 0,44 0,0" stroke="none" fill="#FF3971"></polygon></g><g transform="translate(8.25 8.25)"><g transform="translate(0.9166666666666661 2.75)"><g clip-path="url(#i2)"><polygon points="0,0 25.6666667,0 25.6666667,22.0859375 0,22.0859375 0,0" stroke="none" fill="#F7F7F7"></polygon></g></g></g></g></g></g></svg>