<?xml version="1.0" encoding="UTF-8"?><svg version="1.1" width="44px" height="44px" viewBox="0 0 44.0 44.0" xmlns="http://www.w3.org/2000/svg" xmlns:xlink="http://www.w3.org/1999/xlink"><defs><clipPath id="i0"><path d="M1920,0 L1920,1080 L0,1080 L0,0 L1920,0 Z"></path></clipPath><clipPath id="i1"><path d="M22,0 C34.1502645,0 44,9.8497355 44,22 C44,34.1502645 34.1502645,44 22,44 C9.8497355,44 0,34.1502645 0,22 C0,9.8497355 9.8497355,0 22,0 Z"></path></clipPath><clipPath id="i2"><path d="M13.615723,0.515625 L11.7823897,2.34895833 L1.83333333,2.34895833 L1.83333333,18.8489583 L18.3333333,18.8489583 L18.3333333,13.3489583 L20.1666667,11.515625 L20.1666667,20.6822917 L0,20.6822917 L0,0.515625 L13.615723,0.515625 Z M16.8795568,0 L22.9166667,6.015625 L16.8867188,12.0455729 L15.5904943,10.7493485 L19.4075521,6.93229167 L10.5416667,6.93229167 C8.7725,6.93229167 7.33333333,8.37145833 7.33333333,10.140625 C7.33333333,11.9097917 8.7725,13.3489583 10.5416667,13.3489583 L11,13.3489583 L11,15.1822917 L10.5416667,15.1822917 C7.76233333,15.1822917 5.5,12.920875 5.5,10.140625 C5.5,7.360375 7.76233333,5.09895833 10.5416667,5.09895833 L19.4039716,5.09895833 L15.5833333,1.29622396 L16.8795568,0 Z"></path></clipPath></defs><g transform="translate(-153.0 -19.0)"><g clip-path="url(#i0)"><g transform="translate(153.0 19.0)"><g clip-path="url(#i1)"><polygon points="0,0 44,0 44,44 0,44 0,0" stroke="none" fill="#FFBE00"></polygon></g><g transform="translate(8.25 8.25)"><g transform="translate(2.75 3.6666666666666643)"><g clip-path="url(#i2)"><polygon points="0,0 22.9166667,0 22.9166667,20.6822917 0,20.6822917 0,0" stroke="none" fill="#F7F7F7"></polygon></g></g></g></g></g></g></svg>